HIERARCHY
ROOT Hips
{
	OFFSET 0.000000 0.000000 0.000000 
	CHANNELS 6 Xposition Yposition Zposition Yrotation Zrotation Xrotation 
	JOINT Lumbar
	{
		OFFSET 0.000000 0.000000 0.000000 
		CHANNELS 3 Zrotation Xrotation Yrotation
		JOINT Neck
		{
			OFFSET 0.000000 0.445665 0.000000 
			CHANNELS 3 Zrotation Xrotation Yrotation
			End Site
			{
				OFFSET 0.000000 0.227535 0.000000 
			}
		}
		JOINT RightShoulder
		{
			OFFSET 0.019635 0.377685 0.194865 
			CHANNELS 3 Zrotation Xrotation Yrotation
			JOINT RightElbow
			{
				OFFSET 0.000000 -0.243375 0.000000 
				CHANNELS 2 Zrotation Yrotation
				JOINT RightWrist
				{
					OFFSET 0.000000 -0.264825 0.000000 
					CHANNELS 2 Zrotation Xrotation
					End Site
					{
						OFFSET 0.006600 -0.176220 0.000990 
					}
				}
			}
		}
		JOINT LeftShoulder
		{
			OFFSET 0.019635 0.377685 -0.194865 
			CHANNELS 3 Zrotation Xrotation Yrotation
			JOINT LeftElbow
			{
				OFFSET 0.000000 -0.243375 0.000000 
				CHANNELS 2 Zrotation Yrotation
				JOINT LeftWrist
				{
					OFFSET 0.000000 -0.264825 0.000000 
					CHANNELS 2 Zrotation Xrotation
					End Site
					{
						OFFSET 0.006600 -0.176220 -0.000990 
					}
				}
			}
		}
	}
	JOINT RightHip
	{
		OFFSET 0.052140 -0.069960 0.075570 
		CHANNELS 3 Zrotation Xrotation Yrotation
		JOINT RightKnee
		{
			OFFSET 0.000000 -0.402270 0.000000 
			CHANNELS 1 Zrotation
			JOINT RightAnkle
			{
				OFFSET 0.000000 -0.404085 0.000000 
				CHANNELS 3 Zrotation Xrotation Yrotation
				End Site
				{
					OFFSET 0.204105 -0.089430 0.008415 
				}
			}
		}
	}
	JOINT LeftHip
	{
		OFFSET 0.052140 -0.069960 -0.075570 
		CHANNELS 3 Zrotation Xrotation Yrotation
		JOINT LeftKnee
		{
			OFFSET 0.000000 -0.402270 0.000000 
			CHANNELS 1 Zrotation
			JOINT LeftAnkle
			{
				OFFSET 0.000000 -0.404085 0.000000 
				CHANNELS 3 Zrotation Xrotation Yrotation
				End Site
				{
					OFFSET 0.204105 -0.089430 -0.008415 
				}
			}
		}
	}
}
MOTION
Frames: 31
Frame Time: 0.02
0.07437 0.92199 0.10868 178.72104 0 8.93552 10.74196 -3.05544 4.27546 -49.95163 -10.73195 -14.81928 33.28004 -7.23727 34.69441 23.34092 123.02598 -18.93605 -12.02872 18.73981 63.77702 -21.05722 79.46102 -18.00707 -20.46269 -10.16233 17.26894 12.31938 -8.07266 -47.28199 1.16582 -3.60857 -4.67613 -0.06436 -13.92256 30.8681 -12.30278 8.91701 -0.00019 -17.17384
0.07553 0.92264 0.10724 178.42796 0 8.79515 10.35053 -3.02227 4.47943 -50.7172 -10.61406 -14.5114 33.62326 -6.35499 34.45833 23.13267 124.27089 -18.59242 -12.32453 15.8465 61.43988 -16.87575 80.57448 -18.16773 -20.36979 -10.13093 18.15071 12.42947 -8.09426 -48.41148 -0.19202 -3.42928 -4.35192 -0.07052 -13.92333 29.68428 -12.0191 8.76027 -0.00012 -17.20761
0.07692 0.92344 0.10578 178.18994 0 8.62362 9.93026 -3.00246 4.71477 -51.39083 -10.49342 -14.1661 33.64412 -5.61162 34.67929 23.65884 125.57406 -19.21584 -12.47474 14.29579 58.64426 -13.4242 81.59277 -18.31857 -20.54416 -10.05044 19.21917 12.47351 -8.27178 -49.75355 -1.75675 -3.17769 -3.82219 -0.08088 -13.92276 28.26314 -11.68385 8.5493 0.00046 -17.19132
0.07822 0.92418 0.10434 177.94062 0 8.46136 9.52317 -2.97489 4.92699 -52.09836 -10.37858 -13.84701 33.81014 -4.80656 34.6803 23.83363 126.7971 -19.41132 -12.6796 12.12798 56.09196 -9.67362 82.66675 -18.54984 -20.63748 -9.96123 20.19536 12.54703 -8.39156 -50.95833 -3.16815 -2.96946 -3.41415 -0.0872 -13.92149 26.88786 -11.37407 8.36241 -0.00196 -17.11174
0.07949 0.92488 0.10286 177.63535 0 8.3197 9.11529 -2.95511 5.17552 -52.84525 -10.24624 -13.49021 33.98385 -3.99237 34.74216 24.08971 128.30709 -19.5903 -12.94925 9.95557 53.36574 -5.72866 83.6985 -18.50832 -20.5611 -9.98536 21.20851 12.62321 -8.45921 -52.34887 -4.83026 -2.71712 -2.88943 -0.10451 -13.92702 25.7604 -11.04962 8.17638 0.00191 -17.38989
0.08086 0.9257 0.10145 177.45905 0 8.12698 8.70195 -2.92155 5.35702 -53.4854 -10.14847 -13.20227 34.06495 -3.23272 34.7835 24.34879 129.21598 -20.0185 -13.04508 8.12838 50.90508 -2.38723 84.78705 -19.00434 -20.89216 -9.77319 22.18483 12.67797 -8.67049 -53.38827 -6.02228 -2.5391 -2.55617 -0.09733 -13.91645 24.07143 -10.74984 7.97698 -0.00045 -16.91787
0.08244 0.92682 0.10023 177.62423 0 7.81003 8.28573 -2.85255 5.33631 -53.85995 -10.15352 -13.11796 33.95988 -2.57385 34.64189 24.42989 128.37607 -20.92913 -12.67261 6.88185 49.26456 -0.49202 86.10954 -21.11668 -22.39384 -8.86204 23.03769 12.69014 -9.24781 -53.51892 -5.82637 -2.58752 -2.82273 -0.04395 -13.87558 20.82057 -10.48129 7.74522 -0.07953 -14.32943
0.08411 0.92805 0.09907 177.91741 0 7.44108 7.86409 -2.76806 5.24859 -54.12795 -10.19192 -13.1032 33.77409 -1.96876 34.46517 24.48891 126.93336 -22.04745 -12.13202 5.94975 47.9153 0.80407 87.47955 -23.74587 -24.27542 -7.72679 23.84146 12.68289 -9.96155 -53.26603 -5.1567 -2.71243 -3.28486 0.03837 -13.81586 17.02763 -10.24879 7.50368 -0.15503 -10.99954
0.08575 0.92924 0.09789 178.15221 0 7.09024 7.44178 -2.68689 5.19812 -54.43997 -10.21065 -13.0538 33.63088 -1.34899 34.3124 24.56115 125.80626 -23.04602 -11.68154 4.90579 46.45264 2.34176 88.7946 -26.04194 -25.91362 -6.7351 24.65233 12.68424 -10.60874 -53.11588 -4.72945 -2.80022 -3.6439 0.12221 -13.75583 13.52845 -10.03246 7.27228 -0.19167 -8.04527
0.08736 0.9304 0.0967 178.38909 0 6.76207 7.03199 -2.62213 5.12115 -54.76866 -10.24884 -13.01642 33.4514 -0.69071 34.14162 24.64535 124.50742 -24.1852 -11.16871 3.77357 44.89323 3.99138 90.25622 -28.73274 -27.86592 -5.56808 25.53659 12.68433 -11.28461 -53.28059 -4.19618 -2.89605 -4.05656 0.14411 -13.73364 9.81744 -9.67687 7.01455 -0.39424 -4.92161
0.08905 0.93163 0.09554 178.65228 0 6.37415 6.59484 -2.51905 5.08166 -55.037 -10.25384 -12.97039 33.33273 -0.12624 33.9945 24.69023 123.42104 -25.06907 -10.74732 2.8869 43.61087 5.26622 91.41385 -30.74962 -29.24282 -4.71027 26.25061 12.68319 -11.92612 -52.68903 -3.76702 -2.99347 -4.4057 0.30176 -13.62764 6.42612 -9.62055 6.81053 -0.25661 -1.98088
0.09096 0.93306 0.09447 178.94802 0 5.83939 6.08703 -2.31657 5.17402 -55.17807 -10.16435 -12.88904 33.40148 0.21507 33.91477 24.62461 123.07527 -25.18397 -10.62228 2.55923 43.02346 5.72675 91.81654 -30.56265 -29.00905 -4.78933 26.53353 12.68376 -12.47656 -50.16042 -3.75345 -3.08404 -4.54403 0.82803 -13.29918 4.01815 -10.38129 6.75319 0.87321 0.31931
0.09295 0.93455 0.09344 179.267 0 5.24562 5.55149 -2.07571 5.30408 -55.26029 -10.03944 -12.79583 33.5361 0.46016 33.85903 24.51796 122.96257 -25.03298 -10.59517 2.46934 42.707 5.81992 91.89443 -29.72252 -28.17168 -5.18064 26.64097 12.68347 -12.97679 -46.87426 -3.85794 -3.17276 -4.61276 1.48918 -12.88616 1.95866 -11.44125 6.75115 2.33507 2.40011
0.09491 0.93601 0.0924 179.5811 0 4.67523 5.02631 -1.85036 5.40879 -55.36083 -9.9271 -12.70448 33.64206 0.73528 33.79416 24.43103 122.73826 -25.00649 -10.52222 2.29112 42.26811 6.03696 92.05812 -29.32009 -27.55861 -5.4129 26.80993 12.6844 -13.47892 -43.89352 -3.89899 -3.25747 -4.70321 2.08881 -12.50911 -0.23917 -12.36621 6.7268 3.60995 4.55207
0.09688 0.93751 0.09133 179.87654 0 4.11675 4.5099 -1.63177 5.5456 -55.4921 -9.8303 -12.63008 33.73866 1.06678 33.72058 24.33874 122.5164 -24.96952 -10.44926 2.04011 41.83609 6.41679 92.48329 -28.33056 -27.15701 -5.71661 27.05367 12.68341 -14.08737 -41.05489 -3.96389 -3.36431 -4.83247 2.69285 -12.14206 -2.54403 -13.2927 6.69056 5.03803 6.85407
0.09882 0.93893 0.09032 180.21362 0 3.52112 3.96933 -1.3913 5.62573 -55.5481 -9.69294 -12.51713 33.87267 1.25806 33.6716 24.24873 122.35339 -24.89202 -10.40139 1.99454 41.45041 6.37536 92.28742 -28.4151 -26.18306 -5.93993 27.10132 12.68361 -14.44415 -37.75624 -4.01467 -3.42488 -4.87405 3.31627 -11.73401 -4.53183 -14.28099 6.69188 6.22491 8.77724
0.10067 0.9401 0.08945 180.66822 0 2.82904 3.3637 -1.09016 5.53774 -55.39994 -9.44677 -12.29617 34.08429 1.09167 33.68127 24.16845 122.28964 -24.73436 -10.40291 2.44235 41.12553 5.28851 90.44441 -31.50528 -23.63589 -5.94268 26.64461 12.71181 -14.2648 -33.28514 -3.98778 -3.34684 -4.58025 3.98618 -11.23591 -5.76156 -15.41459 6.78777 6.67177 9.74181
0.10246 0.94121 0.08864 181.16147 0 2.10341 2.73587 -0.77021 5.39248 -55.18064 -9.16208 -12.03726 34.33314 0.78679 33.71577 24.09318 122.27954 -24.55033 -10.4261 3.09076 40.83667 3.78861 87.99 -35.71401 -20.56012 -5.84234 25.99844 12.73673 -13.81045 -28.399 -3.94684 -3.22383 -4.21674 4.66578 -10.6989 -6.67472 -16.59072 6.9189 6.86291 10.32203
0.10425 0.94235 0.08781 181.6313 0 1.3989 2.12138 -0.46521 5.27499 -55.00139 -8.89819 -11.79838 34.5721 0.54148 33.74106 24.01993 122.25416 -24.3988 -10.43797 3.65484 40.53047 2.46213 85.82236 -39.49276 -17.81361 -5.7368 25.44235 12.74719 -13.37937 -23.75768 -3.92102 -3.12869 -3.96092 5.32393 -10.17841 -7.7099 -17.71613 7.03098 7.16647 11.0531
0.10615 0.94345 0.08695 182.12777 0 0.66759 1.4915 -0.13172 5.15027 -54.78721 -8.6183 -11.54759 34.78512 0.30643 33.75781 23.92698 122.20515 -24.15075 -10.46064 4.1951 40.23804 1.18129 83.60394 -42.9377 -14.66102 -5.85361 24.8611 12.82505 -13.35712 -18.83791 -3.86187 -3.00296 -3.39623 6.05939 -9.66067 -8.82857 -18.98551 7.15741 7.49813 11.8801
0.10781 0.94464 0.08617 182.57629 0 -0.0152 0.88964 0.14627 5.02795 -54.62994 -8.36411 -11.31246 35.05828 0.01909 33.79868 23.87696 122.2063 -24.10192 -10.4631 4.83383 39.92189 -0.28599 81.35261 -47.32762 -12.24827 -5.48898 24.29233 12.76165 -12.44236 -14.42767 -3.86767 -2.9293 -3.44121 6.6336 -9.12807 -9.6988 -19.95999 7.26207 7.70557 12.4156
0.10887 0.94605 0.08561 182.89451 0 -0.55445 0.36349 0.26709 4.91366 -54.64518 -8.18121 -11.13252 35.50454 -0.38416 33.89307 23.94301 122.41199 -24.60199 -10.41855 5.65564 39.5303 -2.17945 79.14282 -54.26344 -11.90569 -3.73096 23.78077 12.31043 -8.92292 -11.3756 -4.05328 -3.01861 -5.34491 6.76586 -8.57297 -9.99457 -20.11884 7.29378 7.63619 12.26786
0.10968 0.94755 0.08512 183.16117 0 -1.04367 -0.13204 0.33108 4.80568 -54.72071 -8.02723 -10.96943 36.00673 -0.83366 34.01162 24.05265 122.65301 -25.30609 -10.35027 6.57497 39.11262 -4.24133 76.92674 -62.07425 -12.34485 -1.5069 23.29303 11.71735 -4.55131 -8.8831 -4.3045 -3.16036 -7.83788 6.73382 -8.00315 -10.04726 -19.9765 7.30287 7.4483 11.83649
0.11059 0.94903 0.08458 183.44331 0 -1.55642 -0.63702 0.42046 4.7032 -54.77048 -7.86633 -10.79665 36.4724 -1.25804 34.12416 24.1432 122.82159 -25.92328 -10.28253 7.47558 38.70596 -6.21695 74.7253 -69.35171 -12.50004 0.44663 22.81146 11.18772 -0.70918 -6.23623 -4.52747 -3.27268 -9.95448 6.77248 -7.43441 -10.18966 -19.96424 7.32482 7.31057 11.51706
0.11155 0.95045 0.08411 183.75904 0 -2.06707 -1.16241 0.51242 4.56444 -54.81136 -7.6784 -10.63022 36.98621 -1.70493 34.21845 24.23035 123.21967 -26.51534 -10.25692 8.27878 38.30341 -8.25125 72.44887 -77.24656 -12.34818 2.65075 22.25371 10.66047 3.73304 -3.15034 -4.74454 -3.40698 -12.51667 6.82801 -6.88736 -10.40554 -19.98126 7.3372 7.17962 11.25315
0.11233 0.952 0.08351 183.99374 0 -2.56969 -1.63678 0.5852 4.50221 -54.8853 -7.5534 -10.4562 37.41264 -2.1137 34.35382 24.33551 123.16065 -27.20797 -10.14004 9.30102 37.88666 -10.19415 70.33981 -84.04145 -13.0124 4.44328 21.85991 10.09686 7.13658 -1.11996 -4.98821 -3.50864 -14.30456 6.80961 -6.29287 -10.41843 -19.86652 7.36363 7.00983 10.81446
0.11271 0.95389 0.08253 184.00229 0 -3.06247 -1.98553 0.61916 4.6613 -55.04245 -7.60181 -10.24752 37.58312 -2.40795 34.6186 24.47346 121.71521 -28.13092 -9.75612 10.94059 37.42736 -11.8721 68.65719 -87.64244 -15.88151 4.97637 21.93807 9.44882 7.35458 -1.84703 -5.30116 -3.50698 -13.69711 6.62342 -5.5655 -9.90099 -19.44896 7.43438 6.76172 9.93746
0.1129 0.9559 0.08141 183.93348 0 -3.54845 -2.28228 0.63553 4.89548 -55.22995 -7.71159 -10.03258 37.66392 -2.6608 34.92096 24.62857 119.82901 -29.14542 -9.28508 12.78949 36.95618 -13.44424 67.15259 -90.09024 -19.52145 5.08027 22.17609 8.77283 6.51658 -3.62189 -5.63613 -3.47111 -12.31017 6.36894 -4.79235 -9.19477 -18.91107 7.5198 6.48016 8.90121
0.11314 0.95784 0.08033 183.90996 0 -4.03765 -2.59783 0.65986 5.08786 -55.39951 -7.78896 -9.82701 37.78601 -2.93095 35.19005 24.78074 118.22113 -30.11943 -8.86724 14.51757 36.49671 -15.04464 65.59501 -93.02225 -22.71707 5.38603 22.32626 8.12172 6.2324 -4.93392 -5.95374 -3.45121 -11.3564 6.14843 -4.04367 -8.59577 -18.43665 7.59839 6.21484 7.95604
0.11351 0.95985 0.07933 183.84267 0 -4.52563 -2.93335 0.68287 5.31223 -55.5885 -7.886 -9.59455 37.90708 -3.21056 35.52315 24.91647 116.28849 -31.1053 -8.3905 16.35732 36.01006 -16.73717 63.92192 -96.15249 -26.33466 5.67956 22.54385 7.41338 5.66708 -6.2134 -6.30609 -3.43076 -10.09565 5.91065 -3.27808 -7.89746 -17.91566 7.67716 5.93964 6.92092
0.11357 0.96174 0.07813 183.84786 0 -5.01386 -3.21453 0.70457 5.48847 -55.7436 -7.95677 -9.4163 38.00916 -3.4583 35.73803 25.08675 114.92297 -32.07369 -8.01683 18.01331 35.57709 -18.20757 62.52809 -98.58608 -29.24864 5.8903 22.65553 6.82055 5.42417 -7.79658 -6.58867 -3.40336 -9.27431 5.69372 -2.53817 -7.36454 -17.46579 7.75899 5.68014 6.04013
